<?xml version="1.0" encoding="UTF-8" standalone="no" ?>
<!DOCTYPE svg PUBLIC "-//W3C//DTD SVG 1.1//EN" "http://www.w3.org/Graphics/SVG/1.1/DTD/svg11.dtd">
<svg xmlns="http://www.w3.org/2000/svg" xmlns:xlink="http://www.w3.org/1999/xlink" version="1.1" width="1280" height="1024" viewBox="0 0 1280 1024" xml:space="preserve">
<desc>Created with Fabric.js 5.3.0</desc>
<defs>
</defs>
<g transform="matrix(1 0 0 1 640 512)" id="background-logo"  >
<rect style="stroke: none; stroke-width: 0; stroke-dasharray: none; stroke-linecap: butt; stroke-dashoffset: 0; stroke-linejoin: miter; stroke-miterlimit: 4; fill: rgba(255, 255, 255, 0); fill-rule: nonzero; opacity: 1;"  paint-order="stroke"  x="-640" y="-512" rx="0" ry="0" width="1280" height="1024" />
</g>
<g transform="matrix(4.060112655050908 0 0 4.060112655050908 640 512)" id="logo-logo"  >
<g style=""  paint-order="stroke"   >
		<g transform="matrix(1.1349242810559872 0 0 -1.1349242810559872 0 0)"  >
<path style="stroke: none; stroke-width: 1; stroke-dasharray: none; stroke-linecap: butt; stroke-dashoffset: 0; stroke-linejoin: miter; stroke-miterlimit: 4; fill: rgb(66,223,249); fill-rule: nonzero; opacity: 1;"  paint-order="stroke"  transform=" translate(86.36017919159838, 13.755247353796591)" d="M 0 0 C -2.774 -0.147 -5.078 -2.362 -5.325 -5.129 C -5.556 -7.710999999999999 -4.050000000000001 -9.971 -1.8450000000000002 -10.879999999999999 L -1.8450000000000002 -14.645 L -13.482000000000001 -14.645 L -13.482000000000001 -4.792 L -21 -4.792 C -24.734 -4.792 -27.964 -2.1159999999999997 -28.573 1.5670000000000002 C -28.789 2.866 -29.052 4.148 -29.362000000000002 5.413 C -30.253 9.048 -28.356 12.791 -24.917 14.267 L -21.764000000000003 15.62 L -17.738000000000003 8.477999999999998 L -3.687000000000003 14.355999999999998 C -2.502000000000003 13.174999999999997 -0.7980000000000032 12.514999999999999 1.0539999999999967 12.750999999999998 C 3.604999999999997 13.076999999999998 5.646999999999997 15.158999999999997 5.9309999999999965 17.715999999999998 C 6.307999999999996 21.128999999999998 3.6459999999999964 24.019 0.3089999999999966 24.019 C -2.8150000000000035 24.019 -5.349000000000004 21.485999999999997 -5.349000000000004 18.360999999999997 C -5.349000000000004 18.350999999999996 -5.347000000000004 18.339999999999996 -5.347000000000004 18.33 L -15.867000000000004 13.928999999999998 L -19.910000000000004 21.102999999999998 L -26.633000000000003 18.217 C -30.1 16.729 -34.107 17.994 -36.155 21.163 C -36.588 21.831 -37.034 22.489 -37.496 23.136 C -39.694 26.217 -39.393 30.421 -36.716 33.097 L -34.311 35.503 L -28.091 30.229 L -15.843000000000002 42.477 L -22.451 47.361999999999995 L -16.375 53.43899999999999 L -12.893 50.50999999999999 C -13.21 49.60399999999999 -13.317 48.599999999999994 -13.105 47.54299999999999 C -12.618 45.11599999999999 -10.566 43.239999999999995 -8.102 43.00999999999999 C -4.493 42.67199999999999 -1.5 45.727999999999994 -1.9430000000000005 49.35499999999999 C -2.2400000000000007 51.78199999999999 -4.132000000000001 53.77399999999999 -6.538 54.206999999999994 C -7.804 54.434999999999995 -8.998000000000001 54.22599999999999 -10.025 53.72599999999999 L -16.626 59.27799999999999 L -29.032000000000004 46.870999999999995 L -22.424000000000003 41.986 L -28.330000000000002 36.08 L -34.551 41.354 L -39.762 36.141999999999996 C -42.409 33.495 -46.592 33.11899999999999 -49.635 35.29899999999999 C -50.696 36.059999999999995 -51.788 36.78199999999999 -52.907 37.46199999999999 C -56.095 39.40099999999999 -57.382999999999996 43.38499999999999 -55.998 46.84999999999999 L -54.903 49.591999999999985 L -47.976 45.80999999999999 L -43.175 56.02999999999999 C -43.083999999999996 56.024999999999984 -42.994 56.015999999999984 -42.901999999999994 56.015999999999984 C -39.56499999999999 56.015999999999984 -36.90299999999999 58.90399999999998 -37.279999999999994 62.316999999999986 C -37.56699999999999 64.91199999999999 -39.663999999999994 67.00899999999999 -42.257999999999996 67.29499999999999 C -45.67099999999999 67.67199999999998 -48.559999999999995 65.00999999999999 -48.559999999999995 61.67299999999999 C -48.559999999999995 60.201999999999984 -47.992999999999995 58.865999999999985 -47.071999999999996 57.859999999999985 L -49.928 51.78199999999998 L -57.102 55.698999999999984 L -59.992 48.46299999999999 C -61.396 44.94999999999999 -65.137 43.018999999999984 -68.835 43.816999999999986 C -69.61 43.98399999999999 -70.393 44.133999999999986 -71.17999999999999 44.26699999999999 C -74.904 44.89199999999999 -77.651 48.08099999999999 -77.651 51.856999999999985 L -77.651 55.06899999999999 L -74.816 55.06899999999999 C -73.836 52.96899999999999 -71.61 51.566999999999986 -69.084 51.83099999999999 C -66.477 52.10399999999999 -64.36 54.203999999999986 -64.071 56.80999999999999 C -63.693 60.22399999999999 -66.355 63.11399999999999 -69.693 63.11399999999999 C -72.143 63.11399999999999 -74.223 61.55399999999999 -75.00999999999999 59.37599999999999 L -81.958 59.37599999999999 L -81.958 51.85799999999999 C -81.958 48.12499999999999 -84.634 44.89499999999999 -88.317 44.28499999999999 C -89.616 44.069999999999986 -90.898 43.80699999999999 -92.163 43.49699999999999 C -95.798 42.605999999999995 -99.541 44.501999999999995 -101.017 47.940999999999995 L -102.271 50.86299999999999 L -93.808 54.35199999999999 L -102.49700000000001 72.46499999999999 L -109.33500000000001 70.07499999999999 C -110.525 71.41099999999999 -112.33300000000001 72.18499999999999 -114.31400000000001 71.92699999999999 C -116.86000000000001 71.595 -118.894 69.52099999999999 -119.179 66.97 C -119.56 63.554 -116.897 60.661 -113.558 60.661 C -110.53800000000001 60.661 -108.07700000000001 63.03 -107.91600000000001 66.009 L -104.71400000000001 67.128 L -99.662 56.597 L -107.95100000000001 53.18 L -104.96700000000001 46.227 C -103.47900000000001 42.759 -104.74400000000001 38.751999999999995 -107.91300000000001 36.70399999999999 C -108.58100000000002 36.270999999999994 -109.239 35.82399999999999 -109.88600000000001 35.36299999999999 C -112.96700000000001 33.16499999999999 -117.171 33.465999999999994 -119.84700000000001 36.142999999999994 L -124.361 40.657 C -124.02300000000001 41.467999999999996 -123.866 42.373999999999995 -123.947 43.324999999999996 C -124.182 46.086 -126.465 48.312999999999995 -129.231 48.48 C -132.634 48.686 -135.43699999999998 45.882 -135.23 42.479 C -135.06199999999998 39.714 -132.83499999999998 37.432 -130.07399999999998 37.197 C -129.124 37.116 -128.218 37.272000000000006 -127.40599999999998 37.611000000000004 L -122.89199999999998 33.097 C -120.24499999999998 30.450000000000003 -119.86899999999999 26.267000000000003 -122.04899999999998 23.224000000000004 C -122.80999999999997 22.163000000000004 -123.53199999999998 21.071000000000005 -124.21199999999997 19.951000000000004 C -126.15099999999998 16.763000000000005 -130.13599999999997 15.476000000000004 -133.60099999999997 16.860000000000003 L -136.45799999999997 18.001000000000005 L -132.90599999999998 25.405000000000005 L -154.48 35.017 L -157.243 27.602000000000004 C -157.255 27.602000000000004 -157.267 27.604000000000003 -157.279 27.604000000000003 C -160.61599999999999 27.604000000000003 -163.278 24.715000000000003 -162.901 21.302000000000003 C -162.614 18.708000000000002 -160.51700000000002 16.611000000000004 -157.923 16.325000000000003 C -154.51 15.948000000000002 -151.622 18.610000000000003 -151.622 21.946000000000005 C -151.622 23.503000000000004 -152.251 24.912000000000006 -153.268 25.935000000000006 L -152.045 29.217000000000006 L -138.70499999999998 23.273000000000007 L -142.33299999999997 15.710000000000008 L -135.21299999999997 12.867000000000008 C -131.69999999999996 11.464000000000008 -129.76899999999998 7.722000000000008 -130.56699999999998 4.024000000000008 C -130.73399999999998 3.248000000000008 -130.884 2.466000000000008 -131.01699999999997 1.6790000000000078 C -131.64199999999997 -2.0449999999999924 -134.83099999999996 -4.791999999999993 -138.60699999999997 -4.791999999999993 L -141.81899999999996 -4.791999999999993 L -141.81899999999996 4.887000000000008 L -160.94699999999995 4.887000000000008 L -160.94699999999995 -10.322999999999993 L -167.68699999999995 -10.322999999999993 C -168.53299999999996 -7.879999999999994 -170.99999999999994 -6.193999999999994 -173.80399999999995 -6.565999999999994 C -176.34299999999993 -6.902999999999993 -178.36899999999994 -8.978999999999994 -178.65099999999995 -11.523999999999994 C -179.02999999999994 -14.938999999999993 -176.36799999999997 -17.829999999999995 -173.02999999999994 -17.829999999999995 C -170.78799999999995 -17.829999999999995 -168.85499999999993 -16.520999999999994 -167.93999999999994 -14.629999999999995 L -156.64099999999993 -14.629999999999995 L -156.64099999999993 0.58 L -146.12599999999992 0.58 L -146.12599999999992 -9.099 L -138.60899999999992 -9.099 C -134.87499999999991 -9.099 -131.64499999999992 -11.775 -131.0349999999999 -15.459 C -130.8199999999999 -16.758 -130.5569999999999 -18.04 -130.2469999999999 -19.305 C -129.3559999999999 -22.939 -131.2519999999999 -26.682 -134.6909999999999 -28.158 L -141.5329999999999 -31.094 L -138.5979999999999 -38.634 L -154.8819999999999 -44.854 C -156.0309999999999 -43.707 -157.6699999999999 -43.051 -159.45799999999988 -43.229 C -162.1969999999999 -43.5 -164.37299999999988 -45.78 -164.52899999999988 -48.528 C -164.71399999999988 -51.802 -162.1139999999999 -54.515 -158.87999999999988 -54.515 C -155.7559999999999 -54.515 -153.22299999999987 -51.981 -153.22299999999987 -48.857 C -153.22299999999987 -48.849 -153.22399999999988 -48.841 -153.22399999999988 -48.832 L -133.01299999999986 -41.11 L -136.00999999999988 -33.41 L -132.9769999999999 -32.108 C -129.50999999999988 -30.620999999999995 -125.5019999999999 -31.885999999999996 -123.4539999999999 -35.053999999999995 C -123.02099999999989 -35.72299999999999 -122.5739999999999 -36.379999999999995 -122.1129999999999 -37.026999999999994 C -119.9149999999999 -40.108 -120.2159999999999 -44.312999999999995 -122.8929999999999 -46.98799999999999 L -131.0669999999999 -55.163 C -131.8779999999999 -54.824 -132.78499999999988 -54.666999999999994 -133.7359999999999 -54.748999999999995 C -136.4969999999999 -54.983999999999995 -138.7229999999999 -57.267999999999994 -138.8899999999999 -60.032999999999994 C -139.0959999999999 -63.43599999999999 -136.2929999999999 -66.238 -132.8899999999999 -66.03099999999999 C -130.12499999999991 -65.86299999999999 -127.8419999999999 -63.63699999999999 -127.6069999999999 -60.876999999999995 C -127.5259999999999 -59.925999999999995 -127.6829999999999 -59.019999999999996 -128.0209999999999 -58.208 L -119.8469999999999 -50.033 C -117.19999999999989 -47.387 -113.0169999999999 -47.011 -109.97399999999989 -49.19 C -108.9129999999999 -49.951 -107.82099999999988 -50.672999999999995 -106.70199999999988 -51.354 C -103.51399999999988 -53.292 -102.22599999999989 -57.275999999999996 -103.60999999999989 -60.742 L -104.35599999999988 -62.61 L -112.70599999999988 -58.828 L -122.11899999999987 -77.97800000000001 L -111.93799999999987 -82.67600000000002 L -114.62899999999988 -88.67000000000002 C -114.68799999999987 -88.66800000000002 -114.74599999999988 -88.66100000000002 -114.80499999999988 -88.66100000000002 C -118.14199999999988 -88.66100000000002 -120.80399999999987 -91.55000000000001 -120.42699999999988 -94.96300000000002 C -120.14099999999988 -97.55700000000002 -118.04299999999988 -99.65300000000002 -115.44899999999988 -99.94000000000003 C -112.03599999999989 -100.31600000000003 -109.14799999999988 -97.65500000000003 -109.14799999999988 -94.31800000000003 C -109.14799999999988 -92.81200000000003 -109.73999999999988 -91.44600000000003 -110.70099999999988 -90.43300000000002 L -106.26399999999988 -80.55200000000002 L -116.30699999999987 -75.91700000000002 L -110.68199999999987 -64.47300000000001 L -102.02799999999988 -68.39200000000001 L -99.61699999999988 -62.35400000000001 C -98.21299999999988 -58.84200000000001 -94.47199999999988 -56.91000000000001 -90.77299999999988 -57.70800000000001 C -89.99799999999988 -57.87600000000001 -89.21599999999988 -58.02500000000001 -88.42899999999989 -58.158000000000015 C -84.7039999999999 -58.783000000000015 -81.95799999999988 -61.97300000000001 -81.95799999999988 -65.74900000000001 L -81.95799999999988 -73.26800000000001 L -72.62399999999988 -73.26800000000001 L -72.62399999999988 -80.53100000000002 C -74.82899999999988 -81.44000000000003 -76.33599999999988 -83.70100000000002 -76.10399999999989 -86.28200000000002 C -75.85699999999989 -89.05000000000003 -73.55399999999989 -91.26400000000002 -70.77999999999989 -91.41100000000003 C -67.51499999999989 -91.58500000000004 -64.81299999999989 -88.98900000000003 -64.81299999999989 -85.76300000000003 C -64.81299999999989 -83.40000000000003 -66.26199999999989 -81.37900000000003 -68.3169999999999 -80.53100000000003 L -68.3169999999999 -68.96100000000004 L -77.6509999999999 -68.96100000000004 L -77.6509999999999 -65.75000000000004 C -77.6509999999999 -62.017000000000046 -74.9749999999999 -58.786000000000044 -71.2909999999999 -58.17700000000004 C -69.99199999999989 -57.96200000000004 -68.7099999999999 -57.69800000000004 -67.4449999999999 -57.389000000000046 C -63.81099999999989 -56.49700000000004 -60.066999999999894 -58.39400000000005 -58.59199999999989 -61.83300000000005 L -55.56199999999989 -68.89400000000005 L -47.79299999999989 -64.85300000000005 C -46.748999999999896 -65.71300000000005 -45.391999999999896 -66.20600000000005 -43.916999999999895 -66.13500000000005 C -41.120999999999896 -65.99900000000005 -38.79599999999989 -63.76300000000005 -38.5619999999999 -60.97300000000005 C -38.2739999999999 -57.54200000000005 -41.0499999999999 -54.68400000000005 -44.4519999999999 -54.83200000000005 C -46.8169999999999 -54.93600000000005 -48.873999999999896 -56.56800000000005 -49.5959999999999 -58.82300000000005 C -49.843999999999895 -59.59900000000005 -49.8969999999999 -60.34600000000005 -49.8269999999999 -61.05600000000005 L -53.4339999999999 -62.932000000000045 L -54.6409999999999 -60.118000000000045 C -56.1289999999999 -56.65000000000005 -54.8639999999999 -52.64400000000005 -51.6959999999999 -50.59500000000004 C -51.0269999999999 -50.16200000000004 -50.3689999999999 -49.716000000000044 -49.7229999999999 -49.25400000000004 C -46.641999999999896 -47.05600000000004 -42.4379999999999 -47.35700000000004 -39.760999999999896 -50.03400000000004 L -34.449999999999896 -55.34600000000004 L -27.842999999999897 -48.90500000000004 L -19.453999999999898 -57.80300000000004 L -27.526999999999898 -65.01800000000004 L -18.8539999999999 -74.80900000000004 C -19.3609999999999 -75.84100000000004 -19.5729999999999 -77.04400000000004 -19.3429999999999 -78.31600000000005 C -18.9069999999999 -80.72900000000004 -16.9049999999999 -82.62000000000005 -14.4719999999999 -82.90900000000005 C -10.8439999999999 -83.34100000000005 -7.7939999999999 -80.33600000000006 -8.1479999999999 -76.72200000000005 C -8.389999999999901 -74.26500000000006 -10.2669999999999 -72.22400000000005 -12.6879999999999 -71.74300000000005 C -13.7359999999999 -71.53500000000005 -14.7319999999999 -71.64100000000005 -15.631999999999898 -71.95200000000006 L -21.4609999999999 -65.37100000000005 L -13.2869999999999 -58.06600000000005 L -27.7139999999999 -42.76600000000005 L -34.4109999999999 -49.29400000000005 L -36.7169999999999 -46.98800000000005 C -39.3629999999999 -44.34100000000005 -39.7389999999999 -40.15800000000005 -37.5599999999999 -37.11500000000005 C -36.7989999999999 -36.05400000000005 -36.076999999999906 -34.96200000000005 -35.3959999999999 -33.84300000000005 C -33.4579999999999 -30.655000000000054 -29.4739999999999 -29.367000000000054 -26.007999999999903 -30.752000000000052 L -25.867999999999903 -30.808000000000053 C -25.832999999999902 -34.11900000000006 -22.954999999999902 -36.75000000000006 -19.556999999999903 -36.367000000000054 C -16.9689999999999 -36.07600000000006 -14.879999999999903 -33.983000000000054 -14.592999999999902 -31.395000000000053 C -14.212999999999901 -27.980000000000054 -16.8759999999999 -25.090000000000053 -20.213999999999903 -25.090000000000053 C -21.8059999999999 -25.090000000000053 -23.2419999999999 -25.750000000000053 -24.269999999999904 -26.809000000000054 L -24.395999999999905 -26.758000000000056 C -27.907999999999905 -25.354000000000056 -29.839999999999904 -21.613000000000056 -29.041999999999906 -17.915000000000056 C -28.873999999999906 -17.140000000000057 -28.724999999999905 -16.358000000000057 -28.591999999999906 -15.570000000000055 C -27.966999999999906 -11.846000000000055 -24.776999999999905 -9.099000000000055 -21.001999999999907 -9.099000000000055 L -17.788999999999906 -9.099000000000055 L -17.788999999999906 -18.951000000000057 L 2.462 -18.951000000000057 L 2.462 -10.880000000000058 C 4.518000000000001 -10.033000000000058 5.966 -8.011000000000058 5.966 -5.649000000000058 C 5.966 -2.422 3.265 0.173 0 0" stroke-linecap="round" />
</g>
</g>
</g>
<g transform="matrix(1.9211538461538462 0 0 1.9211538461538462 660.6272505149936 476.7778801227011)" id="tagline-a35f82f6-24ed-4f3d-ba58-000310eb7efc-logo"  >
<g style=""  paint-order="stroke"   >
		<g transform="matrix(1 0 0 1 0 0)" id="tagline-a35f82f6-24ed-4f3d-ba58-000310eb7efc-logo-path-0"  >
<filter id="SVGID_145249" y="-28.135041692088674%" height="156.27008338417735%" x="-37.81737193763921%" width="175.63474387527842%" >
	<feGaussianBlur in="SourceAlpha" stdDeviation="0"></feGaussianBlur>
	<feOffset dx="8.000000000000002" dy="8.000000000000002" result="oBlur" ></feOffset>
	<feFlood flood-color="rgb(40,146,164)" flood-opacity="1"/>
	<feComposite in2="oBlur" operator="in" />
	<feMerge>
		<feMergeNode></feMergeNode>
		<feMergeNode in="SourceGraphic"></feMergeNode>
	</feMerge>
</filter>
<path style="stroke: rgb(65,216,247); stroke-width: 8.81159420289855; stroke-dasharray: none; stroke-linecap: butt; stroke-dashoffset: 0; stroke-linejoin: miter; stroke-miterlimit: 4; fill: rgb(3,17,83); fill-rule: nonzero; opacity: 1;filter: url(#SVGID_145249);"  paint-order="stroke"  transform=" translate(-30.02, 49.17)" d="M 7.57 0 L 52.47 0 L 52.47 -17.66 L 28.87 -17.66 L 28.87 -41.19 L 50.91 -41.19 L 50.91 -57.89 L 28.87 -57.89 L 28.87 -81.05 L 52.47 -81.05 L 52.47 -98.34 L 7.57 -98.34 Z" stroke-linecap="round" />
</g>
</g>
</g>
</svg>